<svg width="16" height="17" xmlns="http://www.w3.org/2000/svg"><path d="M13.128 8.792l.231-2.2h-1.988V5.499c0-.328.051-.558.155-.688.104-.13.343-.196.718-.196h1.105v-2.2h-1.757c-1.018 0-1.748.241-2.19.723-.442.482-.663 1.196-.663 2.14v1.316H7.423v2.2h1.316v6.378h2.632V8.792h1.757zm2.3-5.042v9.643c0 .797-.282 1.478-.848 2.044a2.786 2.786 0 0 1-2.044.849H2.893a2.786 2.786 0 0 1-2.044-.85A2.786 2.786 0 0 1 0 13.394V3.75c0-.797.283-1.478.849-2.044A2.786 2.786 0 0 1 2.893.857h9.643c.797 0 1.478.283 2.044.849.566.566.849 1.247.849 2.044z" fill="#333" fill-rule="evenodd" fill-opacity=".8"/></svg>